<?xml version="1.0" standalone="no"?><!DOCTYPE svg PUBLIC "-//W3C//DTD SVG 1.1//EN" "http://www.w3.org/Graphics/SVG/1.1/DTD/svg11.dtd"><svg t="1720576067786" class="icon" viewBox="0 0 1024 1024" version="1.1" xmlns="http://www.w3.org/2000/svg" p-id="1650" xmlns:xlink="http://www.w3.org/1999/xlink" width="200" height="200"><path d="M798.016 112c5.952 0 11.584 1.664 16.448 4.48a132.032 132.032 0 0 1 97.536 125.696V352a32 32 0 0 1-31.488 32h-28.864l34.432 384.192a132.032 132.032 0 0 1-129.92 143.808H243.904a132.032 132.032 0 0 1-131.968-129.792V678.016a32 32 0 0 1 31.488-32h72.384l-34.944-390.208a132.032 132.032 0 0 1 117.504-143.04l2.432-0.256a37.568 37.568 0 0 1 4.288-0.448h0.704l1.28-0.064h490.88z m-488.256 64h-0.192A67.968 67.968 0 0 0 244.48 248.96l0.128 1.088 53.568 597.952h456.384c1.344 0 2.688 0 4.032-0.128h1.024l1.024-0.128a68.032 68.032 0 0 0 61.76-72.704l-0.128-1.088L787.392 384h-374.4a32 32 0 0 1-31.936-29.824v-0.512l-6.016-113.28a68.032 68.032 0 0 0-65.28-64.32z m-88.128 534.016H176v70.016c0 33.408 24.192 61.248 56 66.944l0.96 0.128 0.96 0.128-12.288-137.216zM704 596.032a64 64 0 0 1-64 64H433.984a64 64 0 0 1 64-64H704zM686.016 448a64 64 0 0 1-64 64H416a64 64 0 0 1 64-64h206.016zM420.736 176c10.048 16.64 16.512 35.84 18.368 56.32l0.128 2.176 0.128 1.92L444.224 320h403.776V243.968c0-35.648-27.456-64.896-62.336-67.712l-0.576-0.064h-0.512l-1.024-0.128h-2.496l-1.088-0.064H420.736z" fill="#3a6cfa" p-id="1651"></path></svg>