<?xml version="1.0" standalone="no"?><!DOCTYPE svg PUBLIC "-//W3C//DTD SVG 1.1//EN" "http://www.w3.org/Graphics/SVG/1.1/DTD/svg11.dtd"><svg t="1722479521566" class="icon" viewBox="0 0 1024 1024" version="1.1" xmlns="http://www.w3.org/2000/svg" p-id="12076" xmlns:xlink="http://www.w3.org/1999/xlink" width="200" height="200"><path d="M877.12768 165.75488l-29.1328-29.12256-29.11232-29.11232C751.54432 38.99392 711.40352 0 669.60384 0H354.39616c-87.04 0-157.44 70.56384-157.44 157.60384v275.68128h-0.23552v315.04384h0.24576v118.0672c0 87.04 70.4 157.61408 157.44 157.61408h472.63744c87.04 0 157.61408-70.57408 157.61408-157.61408V315.0336c-0.01024-41.74848-38.99392-81.93024-107.53024-149.27872z m28.78464 700.64128c0 43.3152-35.56352 78.87872-78.86848 78.87872H354.4064c-43.32544 0-78.72512-35.56352-78.72512-78.87872V157.60384c0-43.32544 35.38944-78.87872 78.71488-78.87872h287.20128c28.3648 7.08608 27.99616 42.1376 27.99616 76.8v120.15616a39.46496 39.46496 0 0 0 39.36256 39.36256h118.07744c39.38304 0 78.86848-0.02048 78.86848 39.36256v511.98976z" fill="#3a6cfa" p-id="12077"></path><path d="M374.60992 593.152l142.26432 142.25408 54.02624-53.62688-88.63744-88.6272 88.63744-88.6272-54.02624-53.64736-142.26432 142.27456M799.1296 593.152L656.85504 450.87744l-54.00576 53.64736 88.61696 88.6272-88.61696 88.6272 54.00576 53.62688z" fill="#3a6cfa" p-id="12078"></path></svg>